<?xml version="1.0" encoding="UTF-8"?>
<svg id="Layer_2" data-name="Layer 2" xmlns="http://www.w3.org/2000/svg" viewBox="0 0 899.83 198.22">
  <defs>
    <style>
      .cls-1 {
        fill: #d9205b;
        stroke-width: 0px;
      }
    </style>
  </defs>
  <g id="Layer_1-2" data-name="Layer 1">
    <path class="cls-1" d="m442.9,6v71.03h-155.48l30.75-41.82,4.68-6.37h-31.87V6h88.89l-30.99,41.81-4.73,6.38h59.28V6h39.48m4-4h-47.48v48.19h-47.33L387.81,2h-100.83v30.84h27.97l-35.43,48.19h167.39V2h0Z"/>
    <path class="cls-1" d="m630.28,6l-51.18,71.03h-74.67v18.79h-39.48V6h165.33m-125.85,49.63h44.9l1.2-1.64,14.92-20.37,4.66-6.36h-65.67v28.37M638.09,2h-177.14v97.82h47.48v-18.79h72.72L638.09,2h0Zm-75.88,29.26l-14.92,20.37h-38.87v-20.37h53.79Z"/>
    <path class="cls-1" d="m773.74,6l-76.01,40.67-14.07,7.53h86.4v22.84h-132.85V6h136.53m-97.05,45.01l5.86-3.07,25.32-13.28,14.39-7.54h-45.56v23.89M789.69,2h-156.49v79.03h140.85v-30.84h-74.44L789.69,2h0Zm-83.69,29.12l-25.32,13.28v-13.28h25.32Z"/>
    <path class="cls-1" d="m893.83,6v22.84h-64.83v48.19h-42.63V6h107.46m4-4h-115.46v79.03h50.63v-48.19h64.83V2h0Z"/>
    <path class="cls-1" d="m320.99,101.72v67.13h79.03v22.84h-118.51v-89.96h39.48m79.03,18.93v22.84h-50.89l-16.36-22.84h67.25m-75.03-22.93h-47.48v97.96h126.51v-30.84h-79.03v-67.13h0Zm79.03,18.93h-79.03l22.09,30.84h56.94v-30.84h0Z"/>
    <path class="cls-1" d="m546.75,120.65v48.19h23.81v22.84h-44.29l-19-26.54v-20.49l-5.92,3.23-27.26,14.89-13.76,7.51h38.94v21.4h-88.89l76.13-40.67,14.09-7.53h-86.56v-22.84h132.71m4-4h-140.71v30.84h74.58l-90.22,48.19h108.87v-29.26l20.94,29.26h50.34v-30.84h-23.81v-48.19h0Zm-74.74,49.63l27.26-14.89v14.89h-27.26Z"/>
    <path class="cls-1" d="m693.04,120.65v22.84h-64.83v48.19h-42.63v-71.03h107.46m4-4h-115.46v79.03h50.63v-48.19h64.83v-30.84h0Z"/>
    <path class="cls-1" d="m747.54,101.72v67.13h79.03v22.84h-118.51v-89.96h39.48m79.03,18.93v22.84h-50.89l-16.36-22.84h67.25m-75.03-22.93h-47.48v97.96h126.51v-30.84h-79.03v-67.13h0Zm79.03,18.93h-79.03l22.09,30.84h56.94v-30.84h0Z"/>
    <path class="cls-1" d="m266.03,8.72v60.69h-96.35l3.02,5.84,60.56,116.97H6v-114.81h65.12v57.2h55.02l-2.95-5.81L62.16,8.72h203.86m4-4H55.65l63.98,125.89h-44.51v-57.2H2v122.81h237.83l-63.58-122.81h93.78V4.72h0Z"/>
  </g>
</svg>