<?xml version="1.0" encoding="UTF-8"?>
<svg id="Layer_2" data-name="Layer 2" xmlns="http://www.w3.org/2000/svg" viewBox="0 0 895.83 194.22">
  <defs>
    <style>
      .cls-1 {
        fill: #d9205b;
        stroke-width: 0px;
      }
    </style>
  </defs>
  <g id="Layer_1-2" data-name="Layer 1">
    <g>
      <g>
        <path class="cls-1" d="m444.9,79.03h-167.39l35.43-48.19h-27.97V0h100.83l-35.71,48.19h47.33V0h47.48v79.03Z"/>
        <path class="cls-1" d="m506.43,79.03v18.79h-47.48V0h177.14l-56.94,79.03h-72.72Zm38.87-29.4l14.92-20.37h-53.79v20.37h38.87Z"/>
        <path class="cls-1" d="m631.21,79.03V0h156.49l-90.08,48.19h74.44v30.84h-140.85Zm84.19-49.92h-36.72v19.65l36.72-19.65Z"/>
        <path class="cls-1" d="m831,30.84v48.19h-50.63V0h115.46v30.84h-64.83Z"/>
      </g>
      <g>
        <path class="cls-1" d="m322.99,95.72v67.13h79.03v30.84h-126.51v-97.96h47.48Zm79.03,18.93v30.84h-56.94l-22.09-30.84h79.03Z"/>
        <path class="cls-1" d="m501.27,193.68h-108.87l90.22-48.19h-74.58v-30.84h140.71v48.19h23.81v30.84h-50.34l-20.94-29.26v29.26Zm-36.15-29.4h36.15v-19.36l-36.15,19.36Z"/>
        <path class="cls-1" d="m630.21,145.49v48.19h-50.63v-79.03h115.46v30.84h-64.83Z"/>
        <path class="cls-1" d="m749.54,95.72v67.13h79.03v30.84h-126.51v-97.96h47.48Zm79.03,18.93v30.84h-56.94l-22.09-30.84h79.03Z"/>
      </g>
      <path class="cls-1" d="m0,71.41h73.12v57.2h44.51L53.65,2.72h214.38v68.69h-93.78l63.58,122.81H0v-122.81Z"/>
    </g>
  </g>
</svg>